<svg id="sprite" xmlns="http://www.w3.org/2000/svg" version="1.0">

	<symbol id="icon-night" xmlns="http://www.w3.org/2000/svg" xmlns:xlink="http://www.w3.org/1999/xlink" viewBox="0 0 100 100" version="1.1" x="0px" y="0px"><g stroke="none" stroke-width="1" fill="none" fill-rule="evenodd"><g><circle fill="currentColor" cx="50" cy="50" r="16"></circle><path d="M55,21 L45,21" stroke="currentColor" stroke-width="5" stroke-linecap="round" transform="translate(50.000000, 21.000000) rotate(90.000000) translate(-50.000000, -21.000000) "></path><path d="M55,79 L45,79" stroke="currentColor" stroke-width="5" stroke-linecap="round" transform="translate(50.000000, 79.000000) rotate(90.000000) translate(-50.000000, -79.000000) "></path><path d="M84,50 L74,50" stroke="currentColor" stroke-width="5" stroke-linecap="round" transform="translate(79.000000, 50.000000) rotate(180.000000) translate(-79.000000, -50.000000) "></path><path d="M26,50 L16,50" stroke="currentColor" stroke-width="5" stroke-linecap="round" transform="translate(21.000000, 50.000000) rotate(180.000000) translate(-21.000000, -50.000000) "></path><path d="M76.0918831,28.9081169 L66.0918831,28.9081169" stroke="currentColor" stroke-width="5" stroke-linecap="round" transform="translate(71.091883, 28.908117) rotate(135.000000) translate(-71.091883, -28.908117) "></path><path d="M33.9081169,71.0918831 L23.9081169,71.0918831" stroke="currentColor" stroke-width="5" stroke-linecap="round" transform="translate(28.908117, 71.091883) rotate(135.000000) translate(-28.908117, -71.091883) "></path><path d="M76.0918831,71.0918831 L66.0918831,71.0918831" stroke="currentColor" stroke-width="5" stroke-linecap="round" transform="translate(71.091883, 71.091883) rotate(225.000000) translate(-71.091883, -71.091883) "></path><path d="M33.9081169,28.9081169 L23.9081169,28.9081169" stroke="currentColor" stroke-width="5" stroke-linecap="round" transform="translate(28.908117, 28.908117) rotate(225.000000) translate(-28.908117, -28.908117) "></path></g></g></symbol>

	<symbol id="icon-arrow-down" xmlns="http://www.w3.org/2000/svg" xmlns:xlink="http://www.w3.org/1999/xlink" x="0px" y="0px" viewBox="-279 386 53 21" style="enable-background:new -279 386 53 21;" xml:space="preserve"><polygon id="SVGID_3_" class="st0" points="-252.5,403.3 -277.3,386 -279,388.5 -252.8,406.8 -252.5,406.4 -252.3,406.8 -226.1,388.5 -227.8,386 "></polygon></symbol>

	<symbol id="icon-chain" viewBox="0 0 30 32">
		<path class="path1" d="M26 21.714q0-0.714-0.5-1.214l-3.714-3.714q-0.5-0.5-1.214-0.5-0.75 0-1.286 0.571 0.054 0.054 0.339 0.33t0.384 0.384 0.268 0.339 0.232 0.455 0.063 0.491q0 0.714-0.5 1.214t-1.214 0.5q-0.268 0-0.491-0.063t-0.455-0.232-0.339-0.268-0.384-0.384-0.33-0.339q-0.589 0.554-0.589 1.304 0 0.714 0.5 1.214l3.679 3.696q0.482 0.482 1.214 0.482 0.714 0 1.214-0.464l2.625-2.607q0.5-0.5 0.5-1.196zM13.446 9.125q0-0.714-0.5-1.214l-3.679-3.696q-0.5-0.5-1.214-0.5-0.696 0-1.214 0.482l-2.625 2.607q-0.5 0.5-0.5 1.196 0 0.714 0.5 1.214l3.714 3.714q0.482 0.482 1.214 0.482 0.75 0 1.286-0.554-0.054-0.054-0.339-0.33t-0.384-0.384-0.268-0.339-0.232-0.455-0.063-0.491q0-0.714 0.5-1.214t1.214-0.5q0.268 0 0.491 0.063t0.455 0.232 0.339 0.268 0.384 0.384 0.33 0.339q0.589-0.554 0.589-1.304zM29.429 21.714q0 2.143-1.518 3.625l-2.625 2.607q-1.482 1.482-3.625 1.482-2.161 0-3.643-1.518l-3.679-3.696q-1.482-1.482-1.482-3.625 0-2.196 1.571-3.732l-1.571-1.571q-1.536 1.571-3.714 1.571-2.143 0-3.643-1.5l-3.714-3.714q-1.5-1.5-1.5-3.643t1.518-3.625l2.625-2.607q1.482-1.482 3.625-1.482 2.161 0 3.643 1.518l3.679 3.696q1.482 1.482 1.482 3.625 0 2.196-1.571 3.732l1.571 1.571q1.536-1.571 3.714-1.571 2.143 0 3.643 1.5l3.714 3.714q1.5 1.5 1.5 3.643z"></path>
	</symbol>

	<symbol id="icon-down" xmlns="http://www.w3.org/2000/svg" width="6" height="4" viewBox="0 0 6 4" class="_1ChreETSD6" data-reactid="69"><path class="cls-1" d="M6 0L3 4 0 0h6z"></path></symbol>

	<symbol id="icon-right" viewBox="0 0 100 100">
		<path d="M32.59,78.41a2,2,0,0,0,2.83,0l29-29a2,2,0,0,0,0-2.83l-29-29a2,2,0,0,0-2.83,2.83L60.17,48,32.59,75.59A2,2,0,0,0,32.59,78.41Z"/>
	</symbol>

	<symbol id="icon-left" viewBox="0 0 96 96">
		<path d="M61.59,78.41a2,2,0,0,0,2.83-2.83L36.83,48,64.41,20.41a2,2,0,0,0-2.83-2.83l-29,29a2,2,0,0,0,0,2.83Z"/>
	</symbol>

	<symbol id="icon-search" xmlns="http://www.w3.org/2000/svg" xmlns:xlink="http://www.w3.org/1999/xlink" version="1.1" x="0px" y="0px" viewBox="0 0 100 125" style="enable-background:new 0 0 100 100;" xml:space="preserve">
		<path d="M95.2,88.9L77.7,71.2c6-7.5,9.3-16.7,9.3-26.1c0-23-18.7-41.8-41.8-41.8c-23,0-41.8,18.8-41.8,41.9  c0,23,18.7,41.8,41.8,41.8c9.5,0,18.8-3.3,26.1-9.3l17.5,17.5c0.9,0.9,2,1.3,3.2,1.3s2.3-0.5,3.2-1.3c0.9-0.9,1.3-2,1.3-3.2  S96.1,89.7,95.2,88.9z M45.2,77.8c-18,0-32.7-14.6-32.7-32.6c0-18,14.7-32.7,32.7-32.7c18,0,32.7,14.7,32.7,32.7  C77.9,63.2,63.2,77.8,45.2,77.8z"/>
	</symbol>

	<symbol id="icon-thumb-tack" viewBox="0 0 21 32">
		<path class="path1" d="M8.571 15.429v-8q0-0.25-0.161-0.411t-0.411-0.161-0.411 0.161-0.161 0.411v8q0 0.25 0.161 0.411t0.411 0.161 0.411-0.161 0.161-0.411zM20.571 21.714q0 0.464-0.339 0.804t-0.804 0.339h-7.661l-0.911 8.625q-0.036 0.214-0.188 0.366t-0.366 0.152h-0.018q-0.482 0-0.571-0.482l-1.357-8.661h-7.214q-0.464 0-0.804-0.339t-0.339-0.804q0-2.196 1.402-3.955t3.17-1.759v-9.143q-0.929 0-1.607-0.679t-0.679-1.607 0.679-1.607 1.607-0.679h11.429q0.929 0 1.607 0.679t0.679 1.607-0.679 1.607-1.607 0.679v9.143q1.768 0 3.17 1.759t1.402 3.955z"></path>
	</symbol>

	<symbol id="icon-lock" xmlns="http://www.w3.org/2000/svg" xmlns:xlink="http://www.w3.org/1999/xlink" version="1.1" x="0px" y="0px" viewBox="0 0 16 16" style="enable-background:new 0 0 16 16;" xml:space="preserve">
		<g><path d="M12,5.537V4c0-2.209-1.791-4-4-4S4,1.791,4,4v1.537C2.775,6.635,2,8.225,2,10c0,3.314,2.686,6,6,6s6-2.686,6-6   C14,8.225,13.225,6.635,12,5.537z M6,4c0-1.103,0.897-2,2-2s2,0.897,2,2v0.349C9.374,4.127,8.702,4,8,4S6.626,4.127,6,4.349V4z    M8,14c-2.209,0-4-1.791-4-4c0-2.209,1.791-4,4-4s4,1.791,4,4C12,12.209,10.209,14,8,14z"></path><path d="M8,12L8,12c-0.552,0-1-0.448-1-1V9c0-0.552,0.448-1,1-1h0c0.552,0,1,0.448,1,1v2C9,11.552,8.552,12,8,12z"></path><rect style="" width="16" height="16" fill="none"></rect></g>
	</symbol>

	<symbol id="icon-500px" viewBox="0 0 64 64">
		<g>
		<path d="M22.5,37.4c0,0,0.2,0.5,0.3,0.7c0.5,1.2,1.2,2.3,2.2,3.2c0.9,0.9,2,1.7,3.2,2.2c1.3,0.5,2.6,0.8,4,0.8c1.4,0,2.7-0.3,4-0.8c1.2-0.5,2.3-1.2,3.2-2.2c0.9-0.9,1.7-2,2.2-3.2c0.5-1.3,0.8-2.6,0.8-4c0-1.4-0.3-2.7-0.8-4c-0.5-1.2-1.2-2.3-2.2-3.2s-2-1.7-3.2-2.2c-1.3-0.5-2.6-0.8-4-0.8c-1.4,0-2.8,0.3-4,0.8c-1,0.4-2.7,1.5-3.6,2.5l0,0v-8.4h14c0.5,0,0.5-0.7,0.5-1c0-0.2,0-0.9-0.5-1H23.3c-0.4,0-0.7,0.3-0.7,0.7v11.8c0,0.4,0.5,0.7,0.9,0.7c0.9,0.2,1.1-0.1,1.3-0.4l0,0c0.3-0.5,1.3-1.5,1.3-1.5c1.6-1.6,3.7-2.4,5.9-2.4c2.2,0,4.3,0.9,5.9,2.4c1.6,1.6,2.4,3.6,2.4,5.9c0,2.2-0.9,4.3-2.4,5.9c-1.5,1.5-3.7,2.4-5.9,2.4c-1.5,0-2.9-0.4-4.2-1.2l0-7.1c0-1,0.4-2,1.1-2.8c0.8-0.9,1.9-1.4,3.1-1.4c1.2,0,2.2,0.4,3,1.2c0.8,0.8,1.2,1.8,1.2,3c0,2.4-1.9,4.3-4.3,4.3c-0.5,0-1.3-0.2-1.3-0.2C30.2,38,30,38.7,30,38.9c-0.3,0.9,0.1,1,0.2,1c0.8,0.2,1.3,0.3,1.9,0.3c3.4,0,6.1-2.8,6.1-6.1c0-3.4-2.8-6.1-6.1-6.1c-1.7,0-3.2,0.6-4.4,1.8c-1.1,1.1-1.8,2.6-1.8,4l0,0c0,0.2,0,4.5,0,5.9l0,0c-0.6-0.7-1.3-1.8-1.7-2.9c-0.2-0.4-0.5-0.4-1-0.2C23,36.7,22.4,36.9,22.5,37.4L22.5,37.4z M29.7,35.7c0,0.2,0.2,0.4,0.3,0.5l0,0c0.2,0.2,0.4,0.3,0.5,0.3c0.1,0,0.2-0.1,0.3-0.1c0.1-0.1,1-1.1,1.1-1.1l1.1,1.1c0.1,0.1,0.2,0.2,0.3,0.2c0.2,0,0.4-0.1,0.6-0.3c0.5-0.5,0.2-0.7,0.1-0.8L33,34.3l1.1-1.1c0.2-0.3,0-0.6-0.2-0.8c-0.3-0.3-0.6-0.4-0.8-0.2L32,33.3l-1.1-1.1c-0.1-0.1-0.1-0.1-0.2-0.1c-0.2,0-0.3,0.1-0.5,0.3c-0.4,0.3-0.4,0.6-0.2,0.8l1.1,1.1l-1.1,1.1C29.8,35.5,29.7,35.6,29.7,35.7z M32.2,20.3c-1.8,0-3.8,0.4-5.2,1c-0.2,0.1-0.2,0.2-0.3,0.4c0,0.2,0,0.4,0.1,0.7c0.1,0.2,0.3,0.8,0.8,0.6c1.5-0.6,3.1-0.9,4.5-0.9c1.7,0,3.3,0.3,4.8,1c1.2,0.5,2.3,1.2,3.6,2.3c0.1,0.1,0.2,0.1,0.3,0.1c0.2,0,0.5-0.2,0.7-0.5c0.3-0.4,0.6-0.7,0.2-1c-1.2-1.1-2.5-2-4.1-2.6C36,20.7,34.1,20.3,32.2,20.3z M42,42.8L42,42.8c-0.2-0.2-0.4-0.3-0.6-0.4c-0.2,0-0.3,0-0.4,0.1l-0.1,0.1c-1.1,1.1-2.4,2-3.9,2.6c-1.5,0.6-3.1,1-4.8,1c-1.7,0-3.3-0.3-4.8-1c-1.5-0.6-2.8-1.5-3.9-2.6c-1.2-1.2-2.1-2.5-2.6-3.9c-0.6-1.4-0.7-2.4-0.8-2.8c0,0,0-0.1,0-0.1c-0.1-0.4-0.4-0.4-1-0.3c-0.2,0-0.9,0.1-0.8,0.6l0,0c0.2,1.1,0.5,2.2,0.9,3.3c0.7,1.7,1.7,3.2,3,4.5c1.3,1.3,2.8,2.3,4.5,3c1.7,0.7,3.6,1.1,5.5,1.1c1.9,0,3.7-0.4,5.5-1.1c1.7-0.7,3.2-1.7,4.5-3c0,0,0.1-0.1,0.1-0.1C42.5,43.6,42.6,43.3,42,42.8z"/>
		</g>
	</symbol>

	<symbol id="icon-bandsintown" viewBox="0 0 64 64">
		<g>
			<path d="M25.8,39.3h13.4v1.1H24.7V18h-5.6v28h25.8V33.7h-19V39.3z M31.4,24.7h-5.6v7.8h5.6V24.7z M38.2,24.7h-5.6v7.8h5.6V24.7z M39.3,18v14.6h5.6V18H39.3z"/>
		</g>
	</symbol>

	<symbol id="icon-behance" viewBox="0 0 64 64">
		<g>
			<path d="M29.1,31c0.8-0.4,1.5-0.9,1.9-1.5c0.4-0.6,0.6-1.4,0.6-2.3c0-0.9-0.1-1.6-0.4-2.2 c-0.3-0.6-0.7-1.1-1.2-1.4c-0.5-0.4-1.1-0.6-1.9-0.8c-0.7-0.2-1.5-0.2-2.4-0.2H17v18.5h8.9c0.8,0,1.6-0.1,2.4-0.3 c0.8-0.2,1.5-0.5,2.1-1c0.6-0.4,1.1-1,1.5-1.7c0.4-0.7,0.5-1.5,0.5-2.4c0-1.2-0.3-2.1-0.8-3C31.1,31.9,30.2,31.3,29.1,31z  M21.1,25.7h3.8c0.4,0,0.7,0,1,0.1c0.3,0.1,0.6,0.2,0.9,0.3c0.3,0.2,0.5,0.4,0.6,0.6c0.2,0.3,0.2,0.6,0.2,1.1c0,0.8-0.2,1.3-0.7,1.7 c-0.5,0.3-1.1,0.5-1.8,0.5h-4.1V25.7z M28.2,36.7c-0.2,0.3-0.4,0.6-0.7,0.7c-0.3,0.2-0.6,0.3-1,0.4c-0.4,0.1-0.7,0.1-1.1,0.1h-4.3 v-5.1h4.4c0.9,0,1.6,0.2,2.1,0.6c0.5,0.4,0.8,1.1,0.8,2C28.4,36,28.3,36.4,28.2,36.7z M46.7,32.3c-0.2-0.9-0.6-1.8-1.2-2.5 C45,29,44.3,28.4,43.5,28c-0.8-0.4-1.8-0.7-3-0.7c-1,0-1.9,0.2-2.8,0.5c-0.8,0.4-1.6,0.9-2.2,1.5c-0.6,0.6-1.1,1.4-1.4,2.2 c-0.3,0.9-0.5,1.8-0.5,2.8c0,1,0.2,2,0.5,2.8c0.3,0.9,0.8,1.6,1.4,2.2c0.6,0.6,1.3,1.1,2.2,1.4c0.9,0.3,1.8,0.5,2.9,0.5 c1.5,0,2.8-0.3,3.9-1c1.1-0.7,1.9-1.8,2.4-3.4h-3.2c-0.1,0.4-0.4,0.8-1,1.2c-0.5,0.4-1.2,0.6-1.9,0.6c-1,0-1.8-0.3-2.4-0.8 c-0.6-0.5-0.9-1.5-0.9-2.6H47C47,34.2,47,33.2,46.7,32.3z M37.3,32.9c0-0.3,0.1-0.6,0.2-0.9c0.1-0.3,0.3-0.6,0.5-0.9 c0.2-0.3,0.5-0.5,0.9-0.7c0.4-0.2,0.9-0.3,1.5-0.3c0.9,0,1.6,0.3,2.1,0.7c0.4,0.5,0.8,1.2,0.8,2.1H37.3z M44.1,23.8h-7.5v1.8h7.5 V23.8z"/>
		</g>
	</symbol>

	<symbol id="icon-chownow" viewBox="0 0 64 64">
		<g>
		  <path d="M32,16c-7.656,0-13.885,6.229-13.885,13.885c0,10.099,11.459,16.756,11.959,17.256	   c0,0,1.167,0.859,1.866,0.859c0.458,0,1.696-0.859,1.696-0.859c0.5-0.5,12.248-7.157,12.248-17.256C45.885,22.229,39.656,16,32,16z		M32.083,39.435c-5.354,0-9.694-4.34-9.694-9.694c0-5.354,4.34-9.693,9.694-9.693c5.354,0,9.693,4.34,9.693,9.693	   C41.776,35.095,37.437,39.435,32.083,39.435z M27.574,25.265c0.007,0.007,0.012,0.015,0.02,0.023l2.587,2.347l1.039-1.076	   l-2.329-2.568c-0.007-0.007-0.015-0.013-0.022-0.019c-0.005-0.005-0.008-0.011-0.013-0.016c-0.358-0.358-0.939-0.358-1.297,0	   c-0.358,0.358-0.358,0.939,0,1.296C27.563,25.257,27.569,25.261,27.574,25.265z M38.707,32.712l0.011,0.01	   c0,0-0.735-2.119-2.624-3.011c-0.218-0.113-0.436-0.193-0.65-0.24c-0.035-0.01-0.096-0.021-0.096-0.021	   c-0.225-0.041-0.656-0.02-0.656-0.02s-0.658,0.118-1.038-0.26l-0.687-0.747l3.366-3.108c0.007-0.007,0.012-0.015,0.019-0.022	   c0.005-0.005,0.011-0.009,0.017-0.014c0.358-0.358,0.358-0.939-0.001-1.297c-0.358-0.358-0.939-0.358-1.296,0	   c-0.005,0.005-0.008,0.011-0.013,0.016c-0.007,0.007-0.015,0.012-0.023,0.019l-3.066,3.321l-0.985,1.067l-0.95,1.029	   c-0.378,0.385-1.006,0.234-1.006,0.234c-0.763-0.159-1.644,0.103-2.419,0.878c-1.18,1.18-1.788,3.217-0.906,4.099	   c0.882,0.881,2.919,0.274,4.099-0.906c0.775-0.775,1.037-1.656,0.878-2.419c0,0-0.15-0.619,0.227-0.998l1.078-0.995l0.778,0.715	   c0.386,0.379,0.268,1.044,0.268,1.044c-0.028,0.208,0.015,0.645,0.015,0.645c0.001,0.003,0.002,0.006,0.003,0.009	   c0.049,0.272,0.151,0.549,0.306,0.826c0.912,1.828,2.972,2.542,2.972,2.542v0c0.178,0.068,0.356,0.122,0.531,0.163	   c0.009,0.002,0.093,0.014,0.154-0.047c0.053-0.053,0.059-0.131,0.025-0.193l-2.508-2.753l0.001-0.001	   c-0.08-0.097-0.075-0.24,0.015-0.33c0.091-0.09,0.233-0.095,0.33-0.015l0.001-0.001c0.108,0.09,1.921,1.744,2.81,2.472	   c0.005,0.002,0.013,0.002,0.019,0.003c0.084,0.035,0.185,0.019,0.254-0.049c0.07-0.07,0.084-0.173,0.046-0.258	   c-0.004-0.01-0.006-0.021-0.013-0.032c-0.726-0.888-2.374-2.681-2.463-2.788l0.001-0.001c-0.08-0.097-0.075-0.24,0.015-0.33	   c0.091-0.09,0.233-0.095,0.331-0.015v-0.001l2.724,2.482c0.065,0.059,0.164,0.061,0.227-0.002c0.048-0.048,0.05-0.111,0.049-0.141	   c-0.004-0.021-0.01-0.044-0.015-0.068C38.823,33.041,38.771,32.877,38.707,32.712z"/>
		</g>
	</symbol>

	<symbol id="icon-codepen" viewBox="0 0 64 64">
		<g>
			<path d="M19.7,36.9l10.9,7.2v-6.5l-6-4L19.7,36.9z M18.7,29.8v4.4l3.4-2.2L18.7,29.8z M30.6,26.4v-6.5 l-10.9,7.2l4.9,3.2L30.6,26.4z M44.3,27.1l-10.9-7.2v6.5l6,4L44.3,27.1z M32,28.8L27.1,32l4.9,3.2l4.9-3.2L32,28.8z M48,37 c0,0.5-0.2,0.9-0.6,1.1l-14.6,9.6c-0.5,0.3-1,0.3-1.5,0l-14.6-9.6C16.2,37.9,16,37.4,16,37V27c0-0.5,0.2-0.9,0.6-1.1l14.6-9.6 c0.5-0.3,1-0.3,1.5,0l14.6,9.6c0.4,0.3,0.6,0.7,0.6,1.1V37z M33.4,37.6v6.5l10.9-7.2l-4.9-3.2L33.4,37.6z M45.3,34.2v-4.4L41.9,32 L45.3,34.2z"/>
		</g>
	</symbol>

	<symbol id="icon-dribbble" viewBox="0 0 64 64">
		<g>
			<path d="M32,48c-8.8,0-16-7.2-16-16s7.2-16,16-16 s16,7.2,16,16S40.8,48,32,48z M45.5,34.2C45,34,41.3,32.9,37,33.6c1.8,4.9,2.5,8.9,2.7,9.7C42.7,41.3,44.9,38,45.5,34.2z M37.3,44.6 c-0.2-1.2-1-5.4-2.9-10.4c0,0-0.1,0-0.1,0c-7.7,2.7-10.5,8-10.7,8.5c2.3,1.8,5.2,2.9,8.4,2.9C33.9,45.7,35.7,45.3,37.3,44.6z  M21.8,41.2c0.3-0.5,4.1-6.7,11.1-9c0.2-0.1,0.4-0.1,0.5-0.2c-0.3-0.8-0.7-1.6-1.1-2.3c-6.8,2-13.4,2-14,1.9c0,0.1,0,0.3,0,0.4 C18.3,35.5,19.7,38.7,21.8,41.2z M18.6,29.2c0.6,0,6.2,0,12.6-1.7c-2.3-4-4.7-7.4-5.1-7.9C22.4,21.5,19.5,25,18.6,29.2z M28.8,18.7 c0.4,0.5,2.9,3.9,5.1,8c4.9-1.8,6.9-4.6,7.2-4.9c-2.4-2.1-5.6-3.4-9.1-3.4C30.9,18.4,29.8,18.5,28.8,18.7z M42.6,23.4 c-0.3,0.4-2.6,3.3-7.6,5.4c0.3,0.7,0.6,1.3,0.9,2c0.1,0.2,0.2,0.5,0.3,0.7c4.5-0.6,9.1,0.3,9.5,0.4C45.6,28.7,44.5,25.7,42.6,23.4z" />
		</g>
	</symbol>

	<symbol id="icon-dropbox" viewBox="0 0 64 64">
		<g>
			<path d="M25.4,17.1L16,23.3l6.5,5.2l9.5-5.9L25.4,17.1z M16,33.7l9.4,6.1l6.6-5.5l-9.5-5.9L16,33.7z  M32,34.3l6.6,5.5l9.4-6.1l-6.5-5.2L32,34.3z M48,23.3l-9.4-6.1L32,22.6l9.5,5.9L48,23.3z M32,35.5L25.4,41l-2.8-1.8v2.1l9.4,5.7 l9.4-5.7v-2.1L38.6,41L32,35.5z"/>
		</g>
	</symbol>

	<symbol id="icon-email" viewBox="0 0 64 64">
		<g>
			<path d="M17,22v20h30V22H17z M41.1,25L32,32.1L22.9,25H41.1z M20,39V26.6l12,9.3l12-9.3V39H20z"/>
		</g>
	</symbol>

	<symbol id="icon-facebook" viewBox="0 0 64 64">
		<g transform="translate(16.983887, 16.983887)">
			<path d="M28.2916266,0 L1.65188365,0 C0.739854232,0 0,0.739854232 0,1.65188365 L0,28.2916266 C0,29.2049036 0.739854232,29.9435102 1.65188365,29.9435102 L15.9923298,29.9435102 L15.9923298,18.3478859 L12.0884446,18.3478859 L12.0884446,13.8301588 L15.9923298,13.8301588 L15.9923298,10.492705 C15.9923298,6.62624929 18.3553718,4.52271769 21.8051137,4.52271769 C23.458245,4.52271769 24.8793141,4.64373938 25.2935326,4.69863581 L25.2935326,8.7410097 L22.8968042,8.7410097 C21.0253348,8.7410097 20.6610221,9.64056265 20.6610221,10.9505912 L20.6610221,13.8339017 L25.1325863,13.8339017 L24.5524307,18.3628577 L20.6610221,18.3628577 L20.6610221,29.9435102 L28.2903789,29.9435102 C29.2049036,29.9435102 29.9435102,29.2049036 29.9435102,28.2916266 L29.9435102,1.65188365 C29.9435102,0.739854232 29.2049036,0 28.2916266,0" id="Shape"></path>
		</g>
	</symbol>

	<symbol id="icon-facebook-mask" viewbox="0 0 64 64">
		<g class="svg-mask">
			<path d="M0,0v64h64V0H0z M39.6,22l-2.8,0c-2.2,0-2.6,1.1-2.6,2.6V28h5.3l-0.7,5.3h-4.6V47h-5.5V33.3H24V28h4.6V24 c0-4.6,2.8-7,6.9-7c2,0,3.6,0.1,4.1,0.2V22z"/>
		</g>
	</symbol>

	<symbol id="icon-flickr" viewBox="0 0 64 64">
		<g>
			<path d="M32,16c-8.8,0-16,7.2-16,16s7.2,16,16,16s16-7.2,16-16S40.8,16,32,16z M26,37c-2.8,0-5-2.2-5-5 s2.2-5,5-5s5,2.2,5,5S28.8,37,26,37z M38,37c-2.8,0-5-2.2-5-5s2.2-5,5-5s5,2.2,5,5S40.8,37,38,37z"/>
		</g>
	</symbol>

	<symbol id="icon-foursquare" viewBox="0 0 64 64">
		<g>
			<path d="M41.5,17c0,0-14.3,0-16.5,0c-2.3,0-3,1.7-3,2.8c0,1.1,0,26.3,0,26.3c0,1.2,0.7,1.7,1,1.8 c0.4,0.1,1.4,0.3,2-0.4c0,0,7.8-9.1,7.9-9.2c0.2-0.2,0.2-0.2,0.4-0.2c0.4,0,3.4,0,5.1,0c2.1,0,2.5-1.5,2.7-2.4 c0.2-0.7,2.3-11.3,2.9-14.7C44.6,18.4,43.9,17,41.5,17z M41.1,35.7c0.2-0.7,2.3-11.3,2.9-14.7 M40.5,21.5l-0.7,3.6 c-0.1,0.4-0.6,0.8-1,0.8c-0.5,0-6.4,0-6.4,0c-0.7,0-1.2,0.5-1.2,1.2v0.8c0,0.7,0.5,1.2,1.2,1.2c0,0,5,0,5.5,0c0.5,0,1,0.6,0.9,1.1 c-0.1,0.5-0.6,3.3-0.7,3.6c-0.1,0.3-0.4,0.8-1,0.8c-0.5,0-4.5,0-4.5,0c-0.8,0-1.1,0.1-1.6,0.8c-0.5,0.7-5.4,6.5-5.4,6.5 c0,0.1-0.1,0-0.1,0V21.4c0-0.5,0.4-1,1-1c0,0,12.8,0,13.3,0C40.2,20.4,40.6,20.9,40.5,21.5z"/>
		</g>
	</symbol>

	<symbol id="icon-github" viewBox="0 0 64 64">
		<g>
			<path d="M32,16c-8.8,0-16,7.2-16,16c0,7.1,4.6,13.1,10.9,15.2 c0.8,0.1,1.1-0.3,1.1-0.8c0-0.4,0-1.4,0-2.7c-4.5,1-5.4-2.1-5.4-2.1c-0.7-1.8-1.8-2.3-1.8-2.3c-1.5-1,0.1-1,0.1-1 c1.6,0.1,2.5,1.6,2.5,1.6c1.4,2.4,3.7,1.7,4.7,1.3c0.1-1,0.6-1.7,1-2.1c-3.6-0.4-7.3-1.8-7.3-7.9c0-1.7,0.6-3.2,1.6-4.3 c-0.2-0.4-0.7-2,0.2-4.2c0,0,1.3-0.4,4.4,1.6c1.3-0.4,2.6-0.5,4-0.5c1.4,0,2.7,0.2,4,0.5c3.1-2.1,4.4-1.6,4.4-1.6 c0.9,2.2,0.3,3.8,0.2,4.2c1,1.1,1.6,2.5,1.6,4.3c0,6.1-3.7,7.5-7.3,7.9c0.6,0.5,1.1,1.5,1.1,3c0,2.1,0,3.9,0,4.4 c0,0.4,0.3,0.9,1.1,0.8C43.4,45.1,48,39.1,48,32C48,23.2,40.8,16,32,16z"/>
		</g>
	</symbol>

	<symbol id="icon-googleplay" viewBox="0 0 64 64">
		<g>
			<path d="M24.4,45.6l16-8.8l-3.6-3.6L24.4,45.6z M22.2,18.5c-0.1,0.2-0.2,0.5-0.2,0.9v25.1 c0,0.4,0.1,0.6,0.2,0.9L35.6,32L22.2,18.5z M47.1,30.8L42.1,28L38.1,32l4,4l5-2.8C48.3,32.5,48.3,31.4,47.1,30.8z M40.4,27.1 l-15.9-8.8l12.3,12.3L40.4,27.1z"/>
		</g>
	</symbol>

	<symbol id="icon-google" viewBox="0 0 64 64">
		<g>
			<path d="M26.182,30.545v3.491h5.775c-0.233,1.498-1.745,4.393-5.775,4.393c-3.476,0-6.313-2.88-6.313-6.429c0-3.549,2.836-6.429,6.313-6.429c1.978,0,3.302,0.844,4.058,1.571l2.764-2.662c-1.775-1.658-4.073-2.662-6.822-2.662C20.553,21.818,16,26.371,16,32c0,5.629,4.553,10.182,10.182,10.182c5.876,0,9.775-4.131,9.775-9.949c0-0.669-0.073-1.178-0.16-1.687H26.182z M45.091,30.545v-2.909h-2.909v2.909h-2.909v2.909h2.909v2.909h2.909v-2.909H48v-2.909H45.091z"/>
		</g>
	</symbol>

	<symbol id="icon-google-mask" viewbox="0 0 64 64">
		<g class="svg-mask">
			<path d="M0,0v64h64V0H0z M26.182,42.182C20.553,42.182,16,37.629,16,32c0-5.629,4.553-10.182,10.182-10.182c2.749,0,5.047,1.004,6.822,2.662l-2.764,2.662c-0.756-0.727-2.08-1.571-4.058-1.571c-3.476,0-6.313,2.88-6.313,6.429c0,3.549,2.836,6.429,6.313,6.429c4.029,0,5.542-2.895,5.775-4.393h-5.775v-3.491h9.615c0.087,0.509,0.16,1.018,0.16,1.687C35.956,38.051,32.058,42.182,26.182,42.182z M48,33.454h-2.909v2.909h-2.909v-2.909h-2.909v-2.909h2.909v-2.909h2.909v2.909H48V33.454z"/>
		</g>
	</symbol>

	<symbol id="icon-instagram" viewBox="0 0 64 64">
		<g>
			<path d="M46.91,25.816c-0.073-1.597-0.326-2.687-0.697-3.641c-0.383-0.986-0.896-1.823-1.73-2.657c-0.834-0.834-1.67-1.347-2.657-1.73c-0.954-0.371-2.045-0.624-3.641-0.697C36.585,17.017,36.074,17,32,17s-4.585,0.017-6.184,0.09c-1.597,0.073-2.687,0.326-3.641,0.697c-0.986,0.383-1.823,0.896-2.657,1.73c-0.834,0.834-1.347,1.67-1.73,2.657c-0.371,0.954-0.624,2.045-0.697,3.641C17.017,27.415,17,27.926,17,32c0,4.074,0.017,4.585,0.09,6.184c0.073,1.597,0.326,2.687,0.697,3.641c0.383,0.986,0.896,1.823,1.73,2.657c0.834,0.834,1.67,1.347,2.657,1.73c0.954,0.371,2.045,0.624,3.641,0.697C27.415,46.983,27.926,47,32,47s4.585-0.017,6.184-0.09c1.597-0.073,2.687-0.326,3.641-0.697c0.986-0.383,1.823-0.896,2.657-1.73c0.834-0.834,1.347-1.67,1.73-2.657c0.371-0.954,0.624-2.045,0.697-3.641C46.983,36.585,47,36.074,47,32S46.983,27.415,46.91,25.816z M44.21,38.061c-0.067,1.462-0.311,2.257-0.516,2.785c-0.272,0.7-0.597,1.2-1.122,1.725c-0.525,0.525-1.025,0.85-1.725,1.122c-0.529,0.205-1.323,0.45-2.785,0.516c-1.581,0.072-2.056,0.087-6.061,0.087s-4.48-0.015-6.061-0.087c-1.462-0.067-2.257-0.311-2.785-0.516c-0.7-0.272-1.2-0.597-1.725-1.122c-0.525-0.525-0.85-1.025-1.122-1.725c-0.205-0.529-0.45-1.323-0.516-2.785c-0.072-1.582-0.087-2.056-0.087-6.061s0.015-4.48,0.087-6.061c0.067-1.462,0.311-2.257,0.516-2.785c0.272-0.7,0.597-1.2,1.122-1.725c0.525-0.525,1.025-0.85,1.725-1.122c0.529-0.205,1.323-0.45,2.785-0.516c1.582-0.072,2.056-0.087,6.061-0.087s4.48,0.015,6.061,0.087c1.462,0.067,2.257,0.311,2.785,0.516c0.7,0.272,1.2,0.597,1.725,1.122c0.525,0.525,0.85,1.025,1.122,1.725c0.205,0.529,0.45,1.323,0.516,2.785c0.072,1.582,0.087,2.056,0.087,6.061S44.282,36.48,44.21,38.061z M32,24.297c-4.254,0-7.703,3.449-7.703,7.703c0,4.254,3.449,7.703,7.703,7.703c4.254,0,7.703-3.449,7.703-7.703C39.703,27.746,36.254,24.297,32,24.297z M32,37c-2.761,0-5-2.239-5-5c0-2.761,2.239-5,5-5s5,2.239,5,5C37,34.761,34.761,37,32,37z M40.007,22.193c-0.994,0-1.8,0.806-1.8,1.8c0,0.994,0.806,1.8,1.8,1.8c0.994,0,1.8-0.806,1.8-1.8C41.807,22.999,41.001,22.193,40.007,22.193z"/>
		</g>
	</symbol>

	<symbol id="icon-itunes" viewBox="0 0 64 64">
		<g>
			<path d="M41.784,28.836c0,3.5,0.002,7-0.002,10.499c0,0.767-0.105,1.519-0.446,2.217c-0.53,1.086-1.399,1.768-2.55,2.095c-0.642,0.183-1.297,0.288-1.965,0.318c-1.749,0.083-3.261-1.103-3.574-2.823c-0.26-1.419,0.419-2.984,1.91-3.715c0.595-0.294,1.23-0.458,1.871-0.596c0.695-0.15,1.393-0.282,2.084-0.441c0.504-0.116,0.84-0.424,0.939-0.948c0.023-0.116,0.033-0.236,0.033-0.355c0.002-3.336,0.002-6.67-0.002-10.005c0-0.114-0.019-0.23-0.047-0.34c-0.072-0.277-0.274-0.446-0.559-0.43c-0.294,0.017-0.584,0.064-0.873,0.122c-1.397,0.275-2.793,0.559-4.189,0.84c-1.425,0.286-2.851,0.576-4.278,0.864c-0.842,0.171-1.684,0.34-2.525,0.51c-0.03,0.006-0.059,0.016-0.088,0.023c-0.509,0.141-0.693,0.374-0.717,0.9c-0.003,0.08-0.002,0.16-0.002,0.241c-0.002,4.782,0,9.565-0.003,14.345c0,0.773-0.086,1.537-0.396,2.255c-0.512,1.18-1.416,1.914-2.636,2.269c-0.645,0.186-1.307,0.293-1.976,0.316c-1.762,0.066-3.225-1.105-3.527-2.838c-0.261-1.494,0.422-3.098,2.119-3.816c0.656-0.275,1.344-0.427,2.036-0.571c0.527-0.111,1.056-0.211,1.582-0.324c0.703-0.153,1.07-0.595,1.1-1.313c0.003-0.094,0.002-0.183,0.002-0.277c0-5.44,0-10.882,0.003-16.323c0-0.227,0.023-0.46,0.077-0.681c0.128-0.524,0.502-0.823,1.003-0.953c0.469-0.122,0.947-0.207,1.422-0.304c1.347-0.272,2.694-0.543,4.042-0.814c1.393-0.282,2.784-0.562,4.176-0.843c1.23-0.249,2.46-0.501,3.693-0.743c0.404-0.08,0.814-0.161,1.22-0.194c0.57-0.045,0.961,0.313,1.019,0.886c0.014,0.136,0.022,0.274,0.022,0.412C41.786,21.814,41.786,25.325,41.784,28.836L41.784,28.836z"/>
		</g>
	</symbol>

	<symbol id="icon-linkedin" viewBox="0 0 64 64">
		<g>
			<path d="M20.4,44h5.4V26.6h-5.4V44z M23.1,18c-1.7,0-3.1,1.4-3.1,3.1c0,1.7,1.4,3.1,3.1,3.1 c1.7,0,3.1-1.4,3.1-3.1C26.2,19.4,24.8,18,23.1,18z M39.5,26.2c-2.6,0-4.4,1.4-5.1,2.8h-0.1v-2.4h-5.2V44h5.4v-8.6 c0-2.3,0.4-4.5,3.2-4.5c2.8,0,2.8,2.6,2.8,4.6V44H46v-9.5C46,29.8,45,26.2,39.5,26.2z"/>
		</g>
	</symbol>

	<symbol id="icon-medium" viewBox="0 0 64 64">
		<g>
			<path d="M46.908,23.95c-0.006-0.005-0.011-0.01-0.018-0.014l-0.01-0.005l-9.05-4.525c-0.061-0.031-0.125-0.051-0.19-0.068c-0.082-0.021-0.165-0.034-0.249-0.034c-0.347,0-0.692,0.174-0.878,0.477l-5.21,8.467l6.538,10.625l9.095-14.779C46.966,24.046,46.952,23.985,46.908,23.95z M28.433,35.958L37,40.241L28.433,26.32V35.958zM38.287,40.884l7.052,3.526C46.256,44.869,47,44.548,47,43.693V26.726L38.287,40.884z M26.946,23.964l-8.839-4.419c-0.16-0.08-0.312-0.118-0.449-0.118c-0.387,0-0.659,0.299-0.659,0.802v19.083c0,0.511,0.374,1.116,0.831,1.344l7.785,3.892c0.2,0.1,0.39,0.147,0.561,0.147c0.484,0,0.823-0.374,0.823-1.003V24.051C27,24.014,26.979,23.98,26.946,23.964z"/>
		</g>
	</symbol>

	<symbol id="icon-meetup" viewBox="0 0 64 64">
		<g>
			<path d="M30.8,33.4c0-6.3,1.9-11.9,3.5-15.3c0.5-1.1,0.9-1.4,1.9-1.4c1.3,0,2.9,0.2,4.1,0.4 c1.1,0.2,1.5,1.6,1.7,2.5c1.2,4.5,4.7,18.7,5.5,22.4c0.2,0.8,0.6,2,0.1,2.3c-0.4,0.2-2.5,0.9-3.9,1c-0.6,0.1-1.1-0.6-1.4-1.5 c-1.5-4.6-3.5-11.8-5.2-16.6c0,3.7-0.3,10.8-0.4,12c-0.1,1.7-0.4,3.7-1.8,3.9c-1.1,0.2-2.4,0.4-4,0.4c-1.3,0-1.8-0.9-2.4-1.8 c-1-1.4-3.1-4.8-4.1-6.9c0.3,2.3,0.7,4.7,0.9,5.8c0.1,0.8,0,1.5-0.6,1.9c-1,0.7-3.2,1.4-4.1,1.4c-0.8,0-1.5-0.8-1.6-1.6 c-0.7-3.4-1.2-8-1.1-11.1c0-2.8,0-5.9,0.2-8.3c0-0.7,0.3-1.1,0.9-1.4c1.2-0.5,3-0.6,4.7-0.3c0.8,0.1,1,0.8,1.4,1.4 C26.9,25.5,28.9,29.5,30.8,33.4z"/>
		</g>
	</symbol>

	<symbol id="icon-pinterest" viewBox="0 0 64 64">
		<g>
			<path d="M32,16c-8.8,0-16,7.2-16,16c0,6.6,3.9,12.2,9.6,14.7c0-1.1,0-2.5,0.3-3.7 c0.3-1.3,2.1-8.7,2.1-8.7s-0.5-1-0.5-2.5c0-2.4,1.4-4.1,3.1-4.1c1.5,0,2.2,1.1,2.2,2.4c0,1.5-0.9,3.7-1.4,5.7 c-0.4,1.7,0.9,3.1,2.5,3.1c3,0,5.1-3.9,5.1-8.5c0-3.5-2.4-6.1-6.7-6.1c-4.9,0-7.9,3.6-7.9,7.7c0,1.4,0.4,2.4,1.1,3.1 c0.3,0.3,0.3,0.5,0.2,0.9c-0.1,0.3-0.3,1-0.3,1.3c-0.1,0.4-0.4,0.6-0.8,0.4c-2.2-0.9-3.3-3.4-3.3-6.1c0-4.5,3.8-10,11.4-10 c6.1,0,10.1,4.4,10.1,9.2c0,6.3-3.5,11-8.6,11c-1.7,0-3.4-0.9-3.9-2c0,0-0.9,3.7-1.1,4.4c-0.3,1.2-1,2.5-1.6,3.4 c1.4,0.4,3,0.7,4.5,0.7c8.8,0,16-7.2,16-16C48,23.2,40.8,16,32,16z"/>
		</g>
	</symbol>

	<symbol id="icon-pinterest-mask" viewbox="0 0 64 64">
		<g class="svg-mask">
			<path d="M0,0v64h64V0H0z M32,48c-1.6,0-3.1-0.2-4.5-0.7c0.6-1,1.3-2.2,1.6-3.4c0.2-0.7,1.1-4.4,1.1-4.4 c0.6,1.1,2.2,2,3.9,2c5.1,0,8.6-4.7,8.6-11c0-4.7-4-9.2-10.1-9.2c-7.6,0-11.4,5.5-11.4,10c0,2.8,1,5.2,3.3,6.1 c0.4,0.1,0.7,0,0.8-0.4c0.1-0.3,0.2-1,0.3-1.3c0.1-0.4,0.1-0.5-0.2-0.9c-0.6-0.8-1.1-1.7-1.1-3.1c0-4,3-7.7,7.9-7.7 c4.3,0,6.7,2.6,6.7,6.1c0,4.6-2,8.5-5.1,8.5c-1.7,0-2.9-1.4-2.5-3.1c0.5-2,1.4-4.2,1.4-5.7c0-1.3-0.7-2.4-2.2-2.4 c-1.7,0-3.1,1.8-3.1,4.1c0,1.5,0.5,2.5,0.5,2.5s-1.8,7.4-2.1,8.7c-0.3,1.2-0.3,2.6-0.3,3.7C19.9,44.2,16,38.6,16,32 c0-8.8,7.2-16,16-16c8.8,0,16,7.2,16,16C48,40.8,40.8,48,32,48z"/>
		</g>
	</symbol>

	<symbol id="icon-reddit" viewbox="0 0 64 64">
		<g>
			<path d="M47.8,30.7c0-2.1-1.7-3.8-3.8-3.8c-0.9,0-1.7,0.3-2.4,0.9c-2.3-1.4-5.2-2.4-8.5-2.5l1.7-5.3 l4.6,1.1c0.1,1.6,1.5,3,3.2,3c1.8,0,3.2-1.4,3.2-3.2s-1.4-3.2-3.2-3.2c-1.2,0-2.3,0.7-2.8,1.7l-5.3-1.2c-0.4-0.1-0.9,0.1-1,0.6 l-2.1,6.5c-3.5,0.1-6.7,1-9.1,2.6c-0.7-0.5-1.5-0.9-2.4-0.9c-2.1,0-3.8,1.7-3.8,3.8c0,1.3,0.7,2.5,1.7,3.1c0,0.3-0.1,0.6-0.1,0.9 c0,5.3,6.4,9.6,14.2,9.6s14.2-4.3,14.2-9.6c0-0.3,0-0.6-0.1-0.9C47.2,33.2,47.8,32,47.8,30.7z M42.6,19.4c0.8,0,1.5,0.7,1.5,1.5 c0,0.8-0.7,1.5-1.5,1.5s-1.5-0.7-1.5-1.5C41.1,20,41.8,19.4,42.6,19.4z M17.8,30.7c0-1.2,0.9-2.1,2.1-2.1c0.3,0,0.6,0.1,0.9,0.2 c-1.1,0.9-2,2-2.5,3.2C18.1,31.7,17.8,31.2,17.8,30.7z M32,42.6c-6.9,0-12.5-3.5-12.5-7.9s5.6-7.9,12.5-7.9s12.5,3.5,12.5,7.9 S38.9,42.6,32,42.6z M45.6,32.1c-0.5-1.2-1.4-2.3-2.5-3.2c0.3-0.1,0.6-0.2,0.9-0.2c1.2,0,2.1,0.9,2.1,2.1 C46.2,31.2,45.9,31.7,45.6,32.1z M29.4,33.1c0-1.2-1-2.1-2.1-2.1s-2.1,1-2.1,2.1s1,2.2,2.1,2.2S29.4,34.2,29.4,33.1z M36.7,30.9 c-1.2,0-2.1,1-2.1,2.1s1,2.2,2.1,2.2c1.2,0,2.1-1,2.1-2.2S37.9,30.9,36.7,30.9z M36,38.2c-0.8,0.8-2.1,1.1-4,1.1 c-1.9,0-3.2-0.4-4-1.1c-0.3-0.3-0.9-0.3-1.2,0c-0.3,0.3-0.3,0.9,0,1.2c1.1,1.1,2.8,1.6,5.2,1.6c2.4,0,4.1-0.5,5.2-1.6 c0.3-0.3,0.3-0.9,0-1.2C36.9,37.8,36.3,37.8,36,38.2z"></path>
		</g>
	</symbol>

	<symbol id="icon-smugmug" viewBox="0 0 64 64">
		<g>
			<path d="M25.4,22.9c2.8,0,4.1-1.7,3.9-3.1 c-0.1-1.2-1.3-2.4-3.6-2.4c-1.9,0-3.1,1.4-3.3,2.8C22.3,21.6,23.1,23,25.4,22.9z M39.2,22.6c2.6-0.1,3.8-1.5,3.8-2.8 c0-1.5-1.4-3-3.8-2.8c-1.9,0.2-3,1.5-3.2,2.8C35.9,21.3,36.9,22.7,39.2,22.6z M40.9,28.5c-6.6,0.7-6.9,0.7-19,1 c-5.1,0-4,17.5,6.9,17.5C39.2,47,51.7,27.4,40.9,28.5z M29,43.9c-9.5,0-8.2-11.3-6.6-11.4c11.1-0.4,13.9-0.9,17.8-0.9 C44.3,31.6,36.6,43.9,29,43.9z"/>
		</g>
	</symbol>

	<symbol id="icon-snapchat-ghost" viewBox="0 0 24 24">
		<path d="M5.829 4.533c-.6 1.344-.363 3.752-.267 5.436-.648.359-1.48-.271-1.951-.271-.49 0-1.075.322-1.167.802-.066.346.089.85 1.201 1.289.43.17 1.453.37 1.69.928.333.784-1.71 4.403-4.918 4.931-.251.041-.43.265-.416.519.056.975 2.242 1.357 3.211 1.507.099.134.179.7.306 1.131.057.193.204.424.582.424.493 0 1.312-.38 2.738-.144 1.398.233 2.712 2.215 5.235 2.215 2.345 0 3.744-1.991 5.09-2.215.779-.129 1.448-.088 2.196.058.515.101.977.157 1.124-.349.129-.437.208-.992.305-1.123.96-.149 3.156-.53 3.211-1.505.014-.254-.165-.477-.416-.519-3.154-.52-5.259-4.128-4.918-4.931.236-.557 1.252-.755 1.69-.928.814-.321 1.222-.716 1.213-1.173-.011-.585-.715-.934-1.233-.934-.527 0-1.284.624-1.897.286.096-1.698.332-4.095-.267-5.438-1.135-2.543-3.66-3.829-6.184-3.829-2.508 0-5.014 1.268-6.158 3.833z"/>
	</symbol>

	<symbol id="icon-soundcloud" viewBox="0 0 30 30">
		<g>
			<path d="M43.6,30c-0.6,0-1.2,0.1-1.7,0.3c-0.3-4-3.7-7.1-7.7-7.1c-1,0-2,0.2-2.8,0.5 C31.1,23.9,31,24,31,24.3v13.9c0,0.3,0.2,0.5,0.5,0.5c0,0,12.2,0,12.2,0c2.4,0,4.4-1.9,4.4-4.4C48,31.9,46,30,43.6,30z M27.2,25.1 c-0.7,0-1.2,0.5-1.2,1.1v11.3c0,0.7,0.6,1.2,1.2,1.2c0.7,0,1.2-0.6,1.2-1.2V26.2C28.4,25.6,27.8,25.1,27.2,25.1z M22.2,27.8 c-0.7,0-1.2,0.5-1.2,1.1v8.5c0,0.7,0.6,1.2,1.2,1.2s1.2-0.6,1.2-1.2V29C23.4,28.3,22.9,27.8,22.2,27.8z M17.2,30.2 c-0.7,0-1.2,0.5-1.2,1.1v4.9c0,0.7,0.6,1.2,1.2,1.2c0.7,0,1.2-0.6,1.2-1.2v-4.9C18.5,30.7,17.9,30.2,17.2,30.2z"/>
		</g>
	</symbol>

	<symbol id="icon-spotify" viewBox="0 0 64 64">
		<g>
			<path d="M32,16c-8.8,0-16,7.2-16,16c0,8.8,7.2,16,16,16c8.8,0,16-7.2,16-16C48,23.2,40.8,16,32,16 M39.3,39.1c-0.3,0.5-0.9,0.6-1.4,0.3c-3.8-2.3-8.5-2.8-14.1-1.5c-0.5,0.1-1.1-0.2-1.2-0.7c-0.1-0.5,0.2-1.1,0.8-1.2 c6.1-1.4,11.3-0.8,15.5,1.8C39.5,38,39.6,38.6,39.3,39.1 M41.3,34.7c-0.4,0.6-1.1,0.8-1.7,0.4c-4.3-2.6-10.9-3.4-15.9-1.9 c-0.7,0.2-1.4-0.2-1.6-0.8c-0.2-0.7,0.2-1.4,0.8-1.6c5.8-1.8,13-0.9,18,2.1C41.5,33.4,41.7,34.1,41.3,34.7 M41.5,30.2 c-5.2-3.1-13.7-3.3-18.6-1.9c-0.8,0.2-1.6-0.2-1.9-1c-0.2-0.8,0.2-1.6,1-1.9c5.7-1.7,15-1.4,21,2.1c0.7,0.4,0.9,1.3,0.5,2.1 C43.1,30.4,42.2,30.6,41.5,30.2"/>
		</g>
	</symbol>

	<symbol id="icon-stumbleupon" viewBox="0 0 64 64">
		<g>
			<path d="M42.5,30.3v4.9c0,0.9-0.8,1.7-1.7,1.7s-1.7-0.8-1.7-1.7v-4.9l-2.7,1.1l-2.7-1.1v4.9 c0,4,3.2,7.2,7.2,7.2s7.2-3.2,7.2-7.2v-4.9H42.5z M33.7,26.9l2.7,1.1l2.7-1.1v-2.1c0-4-3.2-7.2-7.2-7.2s-7.2,3.2-7.2,7.2v10.4 c0,0.9-0.8,1.7-1.7,1.7s-1.7-0.8-1.7-1.7v-4.9H16v4.9c0,4,3.2,7.2,7.2,7.2s7.2-3.2,7.2-7.2V24.8c0-0.9,0.8-1.7,1.7-1.7 s1.7,0.8,1.7,1.7V26.9z"></path>
		</g>
	</symbol>

	<symbol id="icon-tumblr" viewBox="0 0 64 64">
		<g>
			<path d="M39.2,41c-0.6,0.3-1.6,0.5-2.4,0.5c-2.4,0.1-2.9-1.7-2.9-3v-9.3h6v-4.5h-6V17c0,0-4.3,0-4.4,0 c-0.1,0-0.2,0.1-0.2,0.2c-0.3,2.3-1.4,6.4-5.9,8.1v3.9h3V39c0,3.4,2.5,8.1,9,8c2.2,0,4.7-1,5.2-1.8L39.2,41z"/>
		</g>
	</symbol>

	<symbol id="icon-twitch" viewBox="0 0 64 64">
		<g>
			<path d="M40,25.6h-2.5v7.6H40V25.6z M33,25.6h-2.5v7.6H33V25.6z M20.9,18L19,23.1v20.4h7v3.8h3.8l3.8-3.8h5.7l7.6-7.6V18H20.9z M44.5,34.5L40,39h-7l-3.8,3.8V39h-5.7V20.5h21V34.5z"/>
		</g>
	</symbol>

	<symbol id="icon-twitter" viewBox="0 0 64 64">
		<g>
			<path d="M48,22.1c-1.2,0.5-2.4,0.9-3.8,1c1.4-0.8,2.4-2.1,2.9-3.6c-1.3,0.8-2.7,1.3-4.2,1.6 C41.7,19.8,40,19,38.2,19c-3.6,0-6.6,2.9-6.6,6.6c0,0.5,0.1,1,0.2,1.5c-5.5-0.3-10.3-2.9-13.5-6.9c-0.6,1-0.9,2.1-0.9,3.3 c0,2.3,1.2,4.3,2.9,5.5c-1.1,0-2.1-0.3-3-0.8c0,0,0,0.1,0,0.1c0,3.2,2.3,5.8,5.3,6.4c-0.6,0.1-1.1,0.2-1.7,0.2c-0.4,0-0.8,0-1.2-0.1 c0.8,2.6,3.3,4.5,6.1,4.6c-2.2,1.8-5.1,2.8-8.2,2.8c-0.5,0-1.1,0-1.6-0.1c2.9,1.9,6.4,2.9,10.1,2.9c12.1,0,18.7-10,18.7-18.7 c0-0.3,0-0.6,0-0.8C46,24.5,47.1,23.4,48,22.1z"/>
		</g>
	</symbol>

	<symbol id="icon-twitter-mask" viewbox="0 0 64 64">
		<g class="svg-mask">
			<path d="M0,0v64h64V0H0z M44.7,25.5c0,0.3,0,0.6,0,0.8C44.7,35,38.1,45,26.1,45c-3.7,0-7.2-1.1-10.1-2.9 c0.5,0.1,1,0.1,1.6,0.1c3.1,0,5.9-1,8.2-2.8c-2.9-0.1-5.3-2-6.1-4.6c0.4,0.1,0.8,0.1,1.2,0.1c0.6,0,1.2-0.1,1.7-0.2 c-3-0.6-5.3-3.3-5.3-6.4c0,0,0-0.1,0-0.1c0.9,0.5,1.9,0.8,3,0.8c-1.8-1.2-2.9-3.2-2.9-5.5c0-1.2,0.3-2.3,0.9-3.3 c3.2,4,8.1,6.6,13.5,6.9c-0.1-0.5-0.2-1-0.2-1.5c0-3.6,2.9-6.6,6.6-6.6c1.9,0,3.6,0.8,4.8,2.1c1.5-0.3,2.9-0.8,4.2-1.6 c-0.5,1.5-1.5,2.8-2.9,3.6c1.3-0.2,2.6-0.5,3.8-1C47.1,23.4,46,24.5,44.7,25.5z"/>
		</g>
	</symbol>

	<symbol id="icon-vevo" viewBox="0 0 64 64">
		<g>
			<path d="M43,21c-4.5,0-5.4,2.7-6.8,4.6c0,0-3.7,5.6-5.1,7.7l-3-12.3H20l5.1,20.6c1.1,3.7,4.1,3.4,4.1,3.4 c2.1,0,3.6-1.1,5-3.1L48,21C48,21,43.2,21,43,21z"/>
		</g>
	</symbol>

	<symbol id="icon-vimeo" viewBox="0 0 64 64">
		<g>
			<path d="M47,25c-0.1,2.9-2.2,6.9-6.1,12c-4.1,5.3-7.5,8-10.4,8c-1.7,0-3.2-1.6-4.4-4.8 c-0.8-3-1.6-5.9-2.4-8.9c-0.9-3.2-1.9-4.8-2.9-4.8c-0.2,0-1,0.5-2.4,1.4L17,26c1.5-1.3,2.9-2.6,4.4-3.9c2-1.7,3.5-2.6,4.4-2.7 c2.3-0.2,3.8,1.4,4.3,4.8c0.6,3.7,1,6,1.2,6.9c0.7,3.1,1.4,4.6,2.2,4.6c0.6,0,1.6-1,2.8-3c1.3-2,1.9-3.5,2-4.5 c0.2-1.7-0.5-2.6-2-2.6c-0.7,0-1.5,0.2-2.2,0.5c1.5-4.8,4.3-7.2,8.4-7C45.7,19.1,47.2,21.1,47,25z"/>
		</g>
	</symbol>

	<symbol id="icon-vine" viewBox="0 0 64 64">
		<g>
			<path d="M45.2,31.9c-0.8,0.2-1.5,0.3-2.2,0.3c-3.8,0-6.7-2.6-6.7-7.2c0-2.3,0.9-3.4,2.1-3.4 c1.2,0,2,1.1,2,3.2c0,1.2-0.3,2.5-0.6,3.3c0,0,1.2,2,4.4,1.4c0.7-1.5,1-3.5,1-5.2c0-4.6-2.3-7.3-6.6-7.3c-4.4,0-7,3.4-7,7.9 c0,4.4,2.1,8.2,5.5,10c-1.4,2.9-3.3,5.4-5.2,7.3c-3.5-4.2-6.6-9.8-7.9-20.7h-5.1c2.4,18.1,9.4,23.9,11.2,25c1.1,0.6,2,0.6,2.9,0.1 c1.5-0.9,6-5.4,8.6-10.7c1.1,0,2.3-0.1,3.6-0.4V31.9z"/>
		</g>
	</symbol>

	<symbol id="icon-vsco" viewbox="0 0 64 64">
		<g>
			<path d="M32,16c-8.823,0-16,7.178-16,16s7.177,16,16,16s16-7.178,16-16S40.823,16,32,16z M46.118,32c0,0.936-0.096,1.849-0.271,2.735l-3.654-0.979c0.098-0.572,0.161-1.156,0.161-1.756c0-0.6-0.062-1.184-0.161-1.756l3.654-0.979C46.021,30.151,46.118,31.064,46.118,32z M17.882,32c0-0.936,0.096-1.849,0.271-2.734l3.654,0.979c-0.098,0.572-0.161,1.156-0.161,1.755c0,0.599,0.062,1.184,0.161,1.755l-3.654,0.979C17.979,33.849,17.882,32.936,17.882,32zM25.379,24.05l-2.661-2.661c1.37-1.2,2.971-2.138,4.73-2.74l0.977,3.647C27.308,22.71,26.277,23.301,25.379,24.05z M24.048,25.381c-0.749,0.898-1.339,1.928-1.752,3.044l-3.647-0.977c0.601-1.758,1.538-3.358,2.738-4.728L24.048,25.381z M22.297,35.575c0.413,1.117,1.004,2.147,1.753,3.045l-2.661,2.661c-1.2-1.37-2.137-2.97-2.739-4.729L22.297,35.575z M25.38,39.951c0.898,0.749,1.929,1.34,3.045,1.753l-0.977,3.647c-1.759-0.602-3.359-1.539-4.729-2.739L25.38,39.951z M23.529,32c0-4.671,3.8-8.471,8.471-8.471s8.471,3.8,8.471,8.471s-3.8,8.471-8.471,8.471S23.529,36.671,23.529,32z M39.951,25.38l2.661-2.661c1.2,1.37,2.137,2.97,2.738,4.729l-3.647,0.977C41.29,27.308,40.7,26.278,39.951,25.38z M38.62,24.049c-0.898-0.749-1.929-1.34-3.046-1.753l0.977-3.647c1.759,0.601,3.36,1.539,4.73,2.739L38.62,24.049z M38.619,39.952l2.661,2.661c-1.37,1.2-2.97,2.137-4.729,2.738l-0.977-3.647C36.69,41.291,37.721,40.701,38.619,39.952z M39.95,38.621c0.749-0.898,1.34-1.929,1.753-3.046l3.647,0.977c-0.602,1.759-1.539,3.359-2.739,4.729L39.95,38.621z M34.736,18.153l-0.979,3.654C33.185,21.709,32.6,21.647,32,21.647c-0.6,0-1.185,0.062-1.758,0.161l-0.979-3.654c0.886-0.175,1.8-0.271,2.737-0.271C32.936,17.882,33.85,17.979,34.736,18.153z M29.264,45.847l0.979-3.654c0.572,0.098,1.157,0.161,1.757,0.161c0.6,0,1.184-0.062,1.756-0.161l0.979,3.654c-0.886,0.175-1.799,0.271-2.735,0.271C31.064,46.118,30.15,46.021,29.264,45.847z"/>
		</g>
	</symbol>

	<symbol id="icon-wordpress" width="64px" height="64px" viewBox="0 0 64 64" version="1.1" xmlns="http://www.w3.org/2000/svg" xmlns:xlink="http://www.w3.org/1999/xlink">
	    <g id="Shape" stroke="none" stroke-width="1" fill="none" fill-rule="evenodd">
	        <g id="wordpress" transform="translate(18.5, 16.5)" fill="currentColor" fill-rule="nonzero">
	            <path d="M26.7133507,8.49218027 C27.7585421,10.4046317 28.3533058,12.5982894 28.3533058,14.931306 C28.3533058,19.8822782 25.6706478,24.2086241 21.6802563,26.534175 L25.780144,14.6799623 C26.5453735,12.7637781 26.8004499,11.2320749 26.8004499,9.8720818 C26.8004499,9.36815022 26.7680988,8.90154691 26.7133507,8.49093599 L26.7133507,8.49218027 Z M16.7827879,8.62158492 C17.5878342,8.58425666 18.3157353,8.49093599 18.3157353,8.49093599 C19.0399037,8.39761533 18.9552929,7.33375978 18.2323689,7.37233232 C18.2323689,7.37233232 16.0486654,7.54030951 14.6488554,7.54030951 C13.3249463,7.54030951 11.1026703,7.35366819 11.1026703,7.35366819 C10.3747691,7.31633992 10.2802042,8.41752374 11.0093496,8.454852 C11.0093496,8.454852 11.6812584,8.53075281 12.4091595,8.5668368 L14.4995424,14.2967255 L11.5506094,23.106196 L6.66185101,8.58550093 C7.46938581,8.54817267 8.19728698,8.46107338 8.19728698,8.46107338 C8.92518814,8.36775272 8.83933313,7.30389717 8.11640907,7.34620254 C8.11640907,7.34620254 5.94390405,7.51791255 4.54036129,7.51791255 C4.29150619,7.51791255 3.99536862,7.50795835 3.6818112,7.49924842 C6.11063697,3.91946782 10.2466087,1.51179473 14.931306,1.51179473 C18.4264758,1.51179473 21.606844,2.84565806 23.9970972,5.03682721 C23.9398606,5.03309439 23.8838682,5.02562873 23.8216544,5.02562873 C22.5027224,5.02562873 21.5670272,6.17409502 21.5670272,7.40717204 C21.5670272,8.51457723 22.2053405,9.45151668 22.8859592,10.5564333 C23.3973565,11.4523117 23.9933644,12.600778 23.9933644,14.2606415 C23.9933644,15.3991536 23.5528909,16.7417268 22.9718142,18.5894759 L21.6342181,23.0502036 L16.7815436,8.60416506 L16.7827879,8.62158492 Z M14.931306,28.3495729 C13.6136182,28.3495729 12.3419687,28.1591988 11.1387543,27.8058245 L15.166474,16.1021692 L19.2912473,27.4089007 C19.3211099,27.4748473 19.3534611,27.5345725 19.3883008,27.5942977 C17.9947122,28.083298 16.4953603,28.3520615 14.931306,28.3520615 L14.931306,28.3495729 Z M1.50681763,14.931306 C1.50681763,12.9852591 1.92489419,11.1362657 2.67021522,9.46893653 L9.07076838,27.0119768 C4.59635369,24.8357389 1.5080619,20.2456066 1.50681763,14.931306 Z M14.931306,0 C6.70042355,0 0,6.70042355 0,14.931306 C0,23.1621884 6.70042355,29.8626119 14.931306,29.8626119 C23.1621884,29.8626119 29.8626119,23.1621884 29.8626119,14.931306 C29.8626119,6.70042355 23.1621884,0 14.931306,0 Z" id="Shape"></path>
	        </g>
	    </g>
	</symbol>

	<symbol id="icon-yelp" viewBox="0 0 64 64">
		<g>
			<path d="M29.5,35.7c0.5-0.1,0.9-0.6,0.9-1.2c0-0.6-0.3-1.2-0.8-1.4c0,0-1.5-0.6-1.5-0.6 c-5-2.1-5.2-2.1-5.5-2.1c-0.4,0-0.7,0.2-1,0.6c-0.5,0.8-0.7,3.3-0.5,5c0.1,0.6,0.2,1,0.3,1.3c0.2,0.4,0.5,0.6,0.9,0.6 c0.2,0,0.4,0,5.1-1.5C27.5,36.4,29.5,35.7,29.5,35.7z M32.2,37.6c-0.6-0.2-1.2-0.1-1.5,0.4c0,0-1,1.2-1,1.2 c-3.5,4.1-3.7,4.3-3.7,4.5c-0.1,0.1-0.1,0.3-0.1,0.4c0,0.2,0.1,0.4,0.3,0.6c0.8,1,4.7,2.4,6,2.2c0.4-0.1,0.7-0.3,0.9-0.7 C33,46.1,33,45.9,33,41c0,0,0-2.2,0-2.2C33.1,38.3,32.7,37.8,32.2,37.6z M32.3,16.8c-0.1-0.4-0.4-0.7-0.9-0.8 c-1.3-0.3-6.5,1.1-7.5,2.1c-0.3,0.3-0.4,0.7-0.3,1.1c0.2,0.3,6.5,10.4,6.5,10.4c0.9,1.5,1.7,1.3,2,1.2c0.3-0.1,1-0.3,0.9-2.1 C33,26.6,32.4,17.3,32.3,16.8z M36.9,33.4C36.9,33.4,36.8,33.5,36.9,33.4c0.2-0.1,0.7-0.2,1.5-0.4c5.3-1.3,5.5-1.3,5.7-1.5 c0.3-0.2,0.5-0.6,0.5-1c0,0,0,0,0,0c-0.1-1.3-2.4-4.7-3.5-5.2c-0.4-0.2-0.8-0.2-1.1,0c-0.2,0.1-0.4,0.3-3.2,4.2c0,0-1.3,1.7-1.3,1.8 c-0.3,0.4-0.3,1,0,1.5C35.8,33.3,36.3,33.6,36.9,33.4z M44.4,38.6c-0.2-0.1-0.3-0.2-5-1.7c0,0-2-0.7-2.1-0.7c-0.5-0.2-1.1,0-1.4,0.5 c-0.4,0.5-0.5,1.1-0.1,1.6l0.8,1.3c2.8,4.5,3,4.8,3.2,5c0.3,0.2,0.7,0.3,1.1,0.1c1.2-0.5,3.7-3.7,3.9-5 C44.8,39.2,44.7,38.8,44.4,38.6z"/>
		</g>
	</symbol>

	<symbol id="icon-youtube" viewBox="0 0 64 64">
		<g>
			<path d="M46.7,26c0,0-0.3-2.1-1.2-3c-1.1-1.2-2.4-1.2-3-1.3C38.3,21.4,32,21.4,32,21.4h0 c0,0-6.3,0-10.5,0.3c-0.6,0.1-1.9,0.1-3,1.3c-0.9,0.9-1.2,3-1.2,3S17,28.4,17,30.9v2.3c0,2.4,0.3,4.9,0.3,4.9s0.3,2.1,1.2,3 c1.1,1.2,2.6,1.2,3.3,1.3c2.4,0.2,10.2,0.3,10.2,0.3s6.3,0,10.5-0.3c0.6-0.1,1.9-0.1,3-1.3c0.9-0.9,1.2-3,1.2-3s0.3-2.4,0.3-4.9 v-2.3C47,28.4,46.7,26,46.7,26z M28.9,35.9l0-8.4l8.1,4.2L28.9,35.9z"/>
		</g>
	</symbol>

	<symbol id="icon-houzz" viewBox="0 0 32 32">
		<path d="M 16 2.28125 L 8 6.84375 L 8 16 L 16 11.4375 L 16 2.28125 z M 16 11.4375 L 24 16 L 24 6.84375 L 16 11.4375 z M 24 16 L 16 20.5625 L 16 29.71875 L 24 25.15625 L 24 16 z M 16 20.5625 L 8 16 L 8 25.15625 L 16 20.5625 z"/>
	</symbol>

	<symbol id="icon-docker-hub" viewBox="0 0 60 43"><g xmlns="http://www.w3.org/2000/svg" fill-rule="evenodd"><path d="M3.757 15.768h6.04v5.873h-6.04V15.77zM11.17 15.768h6.04v5.873h-6.04V15.77zM11.17 8.24h6.04v5.87h-6.04V8.24zM18.58 15.768h6.043v5.873H18.58V15.77zM18.58 8.24h6.043v5.87H18.58V8.24zM25.993 15.768h6.042v5.873h-6.042V15.77zM25.993 8.24h6.042v5.87h-6.042V8.24zM33.405 15.768h6.042v5.873h-6.042V15.77zM25.993.708h6.042V6.58h-6.042V.708zM12.194 30.12c-.93 0-1.684.733-1.684 1.636 0 .902.755 1.635 1.684 1.635.928 0 1.683-.732 1.683-1.634 0-.903-.755-1.637-1.683-1.637"/><path d="M58.905 18.806c-2.03-1.138-4.73-1.294-7.03-.636-.283-2.377-1.89-4.46-3.8-5.953l-.758-.593-.638.716c-1.28 1.438-1.66 3.83-1.487 5.666.13 1.35.565 2.722 1.42 3.806-.65.38-1.388.682-2.045.9-1.34.44-2.795.685-4.21.685H.613l-.085.89c-.285 2.972.134 5.947 1.398 8.66l.544 1.078.062.1c3.737 6.17 10.3 8.768 17.452 8.768 13.846 0 25.265-6.01 30.51-18.708 3.505.178 7.09-.83 8.805-4.083l.437-.83-.832-.466zm-46.71 16.056c-1.764 0-3.198-1.394-3.198-3.106 0-1.713 1.434-3.107 3.197-3.107 1.763 0 3.197 1.393 3.197 3.106 0 1.712-1.433 3.106-3.196 3.106z"/></g>
	</symbol>

	<symbol id="icon-rss" viewBox="0 0 50 50" style="enable-background:new 0 0 50 50;" xml:space="preserve">
		<path d="M50,50H39.3c0-21.7-17.6-39.3-39.3-39.3V0C27.6,0,50,22.4,50,50z M0,18.4v10.7c11.5,0,20.9,9.4,20.9,20.9h10.7  C31.6,32.6,17.4,18.4,0,18.4z M6,37.9c-3.3,0-6,2.7-6,6c0,3.3,2.7,6,6,6s6-2.7,6-6C12.1,40.6,9.4,37.9,6,37.9z"></path>
	</symbol>

	<symbol id="icon-quora" viewBox="0 0 64 64">
		<g id="quora" transform="translate(16.983887, 16.983887)">
        		<path d="M15.6937685,23.0404431 C14.6699404,21.0260522 13.4699302,18.9907166 11.1253517,18.9907166 C10.679352,18.9907166 10.2296561,19.0658712 9.82061773,19.2482136 L9.02471771,17.6601097 C9.9931038,16.8247843 11.560263,16.1644091 13.5746539,16.1644091 C16.7089722,16.1644091 18.3192529,17.6785904 19.5968819,19.6042742 C20.3521245,17.9594963 20.7106491,15.735658 20.7106491,12.982041 C20.7106491,6.10477491 18.5619655,2.57497065 13.5376926,2.57497065 C8.58734231,2.57497065 6.44481889,6.10477491 6.44481889,12.982041 C6.44481889,19.8235779 8.58734231,23.3176529 13.5376926,23.3176529 C14.3262003,23.3176529 15.0407855,23.2326419 15.6937685,23.0404431 Z M16.9208837,25.4392316 C15.8354535,25.7312258 14.6822609,25.8901594 13.5413887,25.8901594 C6.94749258,25.8901594 0.494049393,20.6305663 0.494049393,12.980809 C0.495281436,5.26205725 6.94749258,0 13.5413887,0 C20.2449367,0 26.6355457,5.22139982 26.6355457,12.982041 C26.6355457,17.299121 24.6211548,20.8067485 21.6950518,23.0737083 C22.6363329,24.4880941 23.5960947,25.4318393 24.9624308,25.4318393 C26.4396508,25.4318393 27.0322637,24.3045196 27.1431476,23.4001998 L29.0614391,23.4001998 C29.1747871,24.60021 28.5661577,29.569041 23.1895204,29.569041 C19.9221413,29.569041 18.2034408,27.6864787 16.9110273,25.4688006 L16.9208837,25.4392316 Z" id="Shape"></path>
      		</g>
	</symbol>

	<symbol id="icon-amazon" viewBox="0 0 64 64">
		<g id="amazon" transform="translate(15.088574, 17.625977)">
      <path d="M0.062764751,23.7390236 C0.163188352,23.57723 0.32358716,23.5660718 0.548145492,23.7083386 C5.61953737,26.651308 11.1400459,28.1241875 17.104092,28.1241875 C21.0819825,28.1241875 25.0096611,27.3807739 28.8857332,25.8995258 L29.3250864,25.7042577 C29.517565,25.6205713 29.6514631,25.5647805 29.7337547,25.5229373 C30.0489732,25.4001973 30.2777159,25.4587778 30.4660101,25.7042577 C30.6333828,25.946948 30.5915396,26.1729011 30.2986374,26.3737484 C29.9415758,26.6387551 29.4617741,26.945605 28.8954966,27.2859294 C27.1603999,28.3222452 25.2132978,29.1214497 23.0583747,29.6933063 C20.9243732,30.2595838 18.8112932,30.5441174 16.7595833,30.5441174 C13.6004241,30.5441174 10.6086377,29.9917876 7.78422389,28.8885227 C4.96678396,27.7810735 2.45619392,26.2245077 0.210610609,24.2160357 C0.0711333844,24.1128225 0.00139477224,24.0068199 0.00139477224,23.9091858 C0.00139477224,23.8436315 0.0292902171,23.7836563 0.0711333844,23.7278654 L0.062764751,23.7390236 Z M9.21944453,15.0663298 C9.21944453,13.6645837 9.56395327,12.4678691 10.2557603,11.4720017 C10.9461726,10.4817134 11.8876438,9.7285364 13.1010957,9.21944453 C14.2113344,8.75219583 15.5503157,8.41745049 17.1626725,8.21520851 C17.7066336,8.15104899 18.6034722,8.07154697 19.8406352,7.97251814 L19.8406352,7.45645241 C19.8406352,6.15931423 19.6941841,5.28339726 19.4222035,4.84125446 C19.0009823,4.24150239 18.3342811,3.9346525 17.4137315,3.9346525 L17.1598829,3.9346525 C16.4903922,3.99881202 15.910167,4.20802786 15.4219967,4.57624773 C14.9338264,4.95283624 14.6200027,5.45495424 14.4805254,6.10491811 C14.3968391,6.52334978 14.1932023,6.7534872 13.8737995,6.81625195 L10.3589735,6.3768987 C10.0130699,6.29321236 9.84011818,6.12583969 9.84011818,5.83293752 C9.84011818,5.768778 9.84988158,5.70740802 9.87080317,5.62372169 C10.2153119,3.82446549 11.0633334,2.48548414 12.4092887,1.60677762 C13.7705864,0.747597923 15.3383104,0.246874687 17.1375666,0.142266769 L17.8907436,0.142266769 C20.1921178,0.142266769 22.0150851,0.747597923 23.3136181,1.94152296 C23.5019123,2.1507388 23.6902066,2.35995464 23.8785008,2.61101364 C24.0458735,2.84115106 24.1909298,3.04897212 24.2732214,3.23866115 C24.3778293,3.42556063 24.4824372,3.69893599 24.5452019,4.03368133 C24.6288883,4.38795348 24.691653,4.61948567 24.7334962,4.74501517 C24.7753394,4.89007149 24.8199721,5.16344685 24.8394989,5.6028001 C24.8534466,6.03936381 24.8673943,6.29042282 24.8673943,6.37410915 L24.8673943,13.7385066 C24.8673943,14.262941 24.9510807,14.7427426 25.0975317,15.1834906 C25.2439828,15.6200544 25.3904339,15.9366677 25.536885,16.1235671 L26.2482189,17.0636436 C26.3737484,17.2533327 26.4379079,17.4207053 26.4379079,17.5657616 C26.4379079,17.7331343 26.3542215,17.8809802 26.1868489,18.0037201 C24.5131222,19.468231 23.5925725,20.2632512 23.448911,20.3887807 C23.2187735,20.5770749 22.9258714,20.5979965 22.5702044,20.4515454 C22.2982239,20.2200132 22.0471649,19.988481 21.8365542,19.7597384 L21.4041748,19.2757524 C21.3204885,19.1725393 21.1726427,18.9828502 20.962032,18.6899481 L20.5436004,18.0832221 C19.4138349,19.3189903 18.3077805,20.0916942 17.196147,20.4055179 C16.5071295,20.6147338 15.6716609,20.7221312 14.6437138,20.7221312 C13.0955166,20.7221312 11.7983784,20.2437243 10.7941424,19.2799367 C9.78990638,18.3175439 9.28778837,16.9576409 9.28778837,15.1793063 L9.21804976,15.0733036 L9.21944453,15.0663298 Z M14.4540248,14.4554195 C14.4540248,15.2448606 14.6492929,15.8780872 15.046803,16.3578889 C15.4443131,16.8321114 15.9882742,17.0720123 16.6577649,17.0720123 C16.7205297,17.0720123 16.8056108,17.0622489 16.9297455,17.0441168 C17.055275,17.0218005 17.116645,17.0120371 17.1612777,17.0120371 C18.0176678,16.7888735 18.6676317,16.240728 19.1474334,15.3689954 C19.3775708,14.9784591 19.5449434,14.5600274 19.6495514,14.0997526 C19.7750809,13.6534255 19.816924,13.276837 19.8378456,12.9839348 C19.8587672,12.7119542 19.8587672,12.2307578 19.8587672,11.5821887 L19.8587672,10.8290117 C18.6871585,10.8290117 17.7889252,10.912698 17.1808045,11.0800707 C15.4024699,11.5821887 14.5028418,12.7119542 14.5028418,14.4693673 L14.4540248,14.4414718 L14.4540248,14.4554195 Z M27.2329281,24.2564841 C27.2747712,24.1727978 27.337536,24.1030591 27.417038,24.0193728 C27.9219455,23.6804432 28.4129054,23.4475162 28.8815488,23.3219867 C29.6486736,23.136482 30.4018506,23.0123472 31.1299217,22.9872413 C31.3251898,22.9705041 31.5204579,22.9872413 31.7017783,23.0290845 C32.6083803,23.1127708 33.1662892,23.2634062 33.3364514,23.4893594 C33.424322,23.6148889 33.4619809,23.8073674 33.4619809,24.0333205 L33.4619809,24.2425364 C33.4619809,24.9538702 33.2667128,25.7907336 32.8831504,26.7531264 C32.4954037,27.7155193 31.9570216,28.4938022 31.2707937,29.0963438 C31.1689753,29.1800301 31.0755256,29.2218733 30.9960236,29.2218733 C30.9541804,29.2218733 30.9123372,29.2218733 30.8704941,29.205136 C30.7449646,29.143766 30.7212534,29.0377633 30.7812286,28.8703907 C31.5344057,27.1129776 31.9054151,25.8813938 31.9054151,25.1881919 C31.9054151,24.9789761 31.8635719,24.8116034 31.7840699,24.7083903 C31.5818279,24.4768581 31.0169452,24.3499338 30.0768687,24.3499338 C29.737939,24.3499338 29.3334551,24.3722502 28.8634168,24.4140934 C28.3571145,24.4768581 27.8870762,24.5396229 27.4686446,24.6023876 C27.3431151,24.6023876 27.2622183,24.5828608 27.2175856,24.5410176 C27.1757424,24.4991745 27.1673738,24.4754633 27.1896901,24.4336202 C27.1896901,24.409909 27.1980587,24.391777 27.2175856,24.3457495 L27.2175856,24.2620632 L27.2329281,24.2564841 Z" id="Shape"></path>
    </g>
  </symbol>

  <symbol id="icon-mastodon" viewBox="0 0 64 64" style="enable-background:new 0 0 64 64;" xml:space="preserve">
    <g id="mastodon">
		<path d="M45.3,26.5c0-6.9-4.5-8.9-4.5-8.9c-2.3-1-6.2-1.5-10.2-1.5h-0.1c-4,0-7.9,0.5-10.2,1.5c0,0-4.5,2-4.5,8.9
				c0,1.6,0,3.5,0,5.4c0.2,6.7,1.2,13.3,7.4,15c2.9,0.8,5.3,0.9,7.3,0.8c3.6-0.2,5.6-1.3,5.6-1.3l-0.1-2.6c0,0-2.6,0.8-5.4,0.7
				c-2.9-0.1-5.9-0.3-6.3-3.8c0-0.3-0.1-0.6-0.1-1c0,0,2.8,0.7,6.4,0.8c2.2,0.1,4.2-0.1,6.3-0.4c4-0.5,7.4-2.9,7.9-5.2
				C45.4,31.6,45.3,26.5,45.3,26.5z M40,35.3h-3.3v-8.1c0-1.7-0.7-2.6-2.1-2.6c-1.6,0-2.4,1-2.4,3.1v4.4h-3.3v-4.4
				c0-2-0.8-3.1-2.4-3.1c-1.4,0-2.1,0.9-2.1,2.6v8.1h-3.3V27c0-1.7,0.4-3.1,1.3-4.1c0.9-1,2.1-1.5,3.5-1.5c1.7,0,3,0.6,3.8,1.9
				l0.8,1.4l0.8-1.4c0.8-1.3,2.1-1.9,3.8-1.9c1.5,0,2.6,0.5,3.5,1.5c0.9,1,1.3,2.4,1.3,4.1V35.3z"/>    </g>
	</symbol>
</svg>